<svg width="39" height="32" fill="none" xmlns="http://www.w3.org/2000/svg"><path d="M29 25.573c-2.61 0-4.253.806-5.703 1.535-1.257.633-2.282 1.151-3.964 1.151-1.74 0-2.706-.48-3.963-1.151-1.45-.73-3.035-1.535-5.703-1.535s-4.254.806-5.704 1.535c-.831.422-1.566.787-2.455.997-.87.192-1.508.883-1.508 1.746v.192c0 1.151 1.083 1.976 2.204 1.746 1.43-.288 2.513-.825 3.5-1.324 1.256-.633 2.261-1.15 3.963-1.15 1.701 0 2.706.479 3.963 1.15 1.45.73 3.035 1.535 5.703 1.535s4.254-.806 5.704-1.535c1.256-.633 2.281-1.15 3.963-1.15 1.74 0 2.707.479 3.963 1.15 1.006.499 2.088 1.055 3.538 1.343a1.833 1.833 0 0 0 1.495-.37 1.806 1.806 0 0 0 .67-1.376v-.172c0-.883-.657-1.573-1.527-1.765-.889-.192-1.604-.557-2.436-.998-1.45-.748-3.093-1.554-5.703-1.554Zm0-8.537c-2.61 0-4.253.825-5.703 1.535-1.257.614-2.282 1.15-3.964 1.15-1.74 0-2.706-.479-3.963-1.15-1.45-.73-3.035-1.535-5.703-1.535s-4.254.825-5.704 1.535c-.831.403-1.566.786-2.474.997C.638 19.76 0 20.451 0 21.314v.192a1.773 1.773 0 0 0 .664 1.384 1.804 1.804 0 0 0 1.501.362c1.45-.288 2.533-.844 3.538-1.324 1.257-.671 2.224-1.151 3.964-1.151 1.74 0 2.706.48 3.963 1.151 1.45.73 3.035 1.535 5.703 1.535s4.254-.825 5.704-1.535c1.256-.671 2.223-1.151 3.963-1.151 1.74 0 2.707.48 3.963 1.151 1.006.499 2.088 1.055 3.538 1.343a1.83 1.83 0 0 0 1.502-.377 1.805 1.805 0 0 0 .664-1.388v-.173c0-.882-.658-1.573-1.528-1.765-.889-.192-1.604-.556-2.436-.997-1.45-.73-3.093-1.535-5.703-1.535Zm5.703-15.501C33.253.805 31.65 0 29 0c-2.649 0-4.253.806-5.703 1.535-1.257.614-2.282 1.15-3.964 1.15-1.74 0-2.706-.479-3.963-1.15C13.92.825 12.335 0 9.667 0S5.413.806 3.963 1.535c-.831.422-1.566.786-2.455.997C.638 2.724 0 3.415 0 4.278v.134a1.796 1.796 0 0 0 2.165 1.765c1.45-.287 2.533-.844 3.538-1.323C6.96 4.22 7.965 3.703 9.667 3.703c1.701 0 2.706.48 3.963 1.15 1.45.73 3.035 1.535 5.703 1.535s4.254-.824 5.704-1.534C26.293 4.24 27.318 3.703 29 3.703c1.74 0 2.707.48 3.963 1.15 1.006.5 2.088 1.056 3.538 1.344a1.83 1.83 0 0 0 1.502-.377 1.806 1.806 0 0 0 .664-1.388v-.173c0-.883-.658-1.573-1.528-1.765-.889-.192-1.604-.537-2.436-.96ZM29 8.499c-2.61 0-4.253.825-5.703 1.535-1.257.671-2.224 1.15-3.964 1.15-1.74 0-2.706-.479-3.963-1.15-1.45-.73-3.035-1.535-5.703-1.535s-4.254.825-5.704 1.535c-.831.44-1.546.805-2.436.997-.87.192-1.527.883-1.527 1.765v.173a1.773 1.773 0 0 0 .664 1.384 1.802 1.802 0 0 0 1.501.362c1.45-.288 2.533-.845 3.538-1.324 1.257-.614 2.282-1.151 3.964-1.151s2.706.48 3.963 1.15c1.45.73 3.035 1.536 5.703 1.536s4.254-.825 5.704-1.535c1.256-.614 2.281-1.151 3.963-1.151 1.74 0 2.707.48 3.963 1.15 1.006.5 2.088 1.056 3.538 1.344a1.83 1.83 0 0 0 1.495-.37 1.808 1.808 0 0 0 .67-1.376v-.173c0-.882-.657-1.573-1.527-1.765-.889-.192-1.604-.556-2.436-.997-1.45-.748-3.093-1.554-5.703-1.554Z" fill="url(#a)"/><defs><linearGradient id="a" x1="19.333" y1="0" x2="19.333" y2="32" gradientUnits="userSpaceOnUse"><stop stop-color="#FFBF00"/><stop offset=".906" stop-color="#F2A60C"/></linearGradient></defs></svg>