<svg width="17" height="14" fill="none" xmlns="http://www.w3.org/2000/svg"><path d="M15 0H1.666C.75 0 .008.75.008 1.667l-.008 10c0 .917.75 1.667 1.666 1.667H15c.916 0 1.666-.75 1.666-1.667v-10C16.666.75 15.916 0 15 0Zm-.334 3.542L8.775 7.226a.843.843 0 0 1-.884 0L2 3.542a.708.708 0 1 1 .75-1.2l5.583 3.492 5.583-3.492a.708.708 0 1 1 .75 1.2Z" fill="url(#a)"/><defs><linearGradient id="a" x1="8.333" y1="0" x2="8.333" y2="13.334" gradientUnits="userSpaceOnUse"><stop stop-color="#FFBF00"/><stop offset=".906" stop-color="#F2A60C"/></linearGradient></defs></svg>