<svg width="14" height="10" fill="none" xmlns="http://www.w3.org/2000/svg"><path d="M11.334 1.667c0-.734-.6-1.334-1.333-1.334H8.668c-.367 0-.667.3-.667.666 0 .368.3.668.667.668h1.333v1.766l-2.32 2.9H5.334V3.667c0-.366-.3-.667-.666-.667H2.667A2.666 2.666 0 0 0 0 5.666V7c0 .368.3.668.667.668h.666c0 1.107.894 2 2 2 1.107 0 2-.893 2-2H7.68c.407 0 .787-.188 1.04-.5l2.32-2.9c.193-.24.293-.535.293-.834V1.667h.001Zm-8 6.667a.669.669 0 0 1-.666-.667h1.333c0 .367-.3.667-.667.667Z" fill="#B3B3B3"/><path d="M2.667 1h2c.367 0 .667.3.667.667 0 .366-.3.666-.666.666H2.667A.669.669 0 0 1 2 1.667C2 1.3 2.3 1 2.667 1Zm8.668 4.666c-1.107 0-2 .894-2 2 0 1.107.893 2 2 2s2-.893 2-2c0-1.106-.893-2-2-2Zm0 2.667a.67.67 0 0 1-.667-.667c0-.366.3-.666.667-.666.367 0 .667.3.667.666 0 .367-.3.667-.667.667Z" fill="#B3B3B3"/></svg>