<svg width="17" height="17" fill="none" xmlns="http://www.w3.org/2000/svg"><path d="M8.333 0C3.75 0 0 3.75 0 8.333s3.75 8.333 8.333 8.333 8.333-3.75 8.333-8.333S12.916 0 8.333 0Zm2.958 11.5-3.4-2.092a.821.821 0 0 1-.4-.708V4.791a.642.642 0 0 1 .634-.625.63.63 0 0 1 .625.625v3.708l3.2 1.925c.3.184.4.575.216.876a.64.64 0 0 1-.875.2Z" fill="url(#a)"/><defs><linearGradient id="a" x1="8.333" y1="0" x2="8.333" y2="16.666" gradientUnits="userSpaceOnUse"><stop stop-color="#FFBF00"/><stop offset=".906" stop-color="#F2A60C"/></linearGradient></defs></svg>