<svg width="14" height="17" fill="none" xmlns="http://www.w3.org/2000/svg"><path d="M7 0C3.325 0 0 2.782 0 7.084c0 2.748 2.144 5.98 6.423 9.702a.897.897 0 0 0 1.163 0C11.856 13.063 14 9.832 14 7.084 14 2.782 10.675 0 7 0Zm0 8.64c-.963 0-1.75-.778-1.75-1.729 0-.95.787-1.728 1.75-1.728s1.75.777 1.75 1.728c0 .95-.787 1.728-1.75 1.728Z" fill="url(#a)"/><defs><linearGradient id="a" x1="7" y1="0" x2="7" y2="17" gradientUnits="userSpaceOnUse"><stop stop-color="#FFBF00"/><stop offset=".906" stop-color="#F2A60C"/></linearGradient></defs></svg>