<svg width="32" height="32" fill="none" xmlns="http://www.w3.org/2000/svg"><path d="M16 10.182A5.817 5.817 0 0 0 10.182 16 5.817 5.817 0 0 0 16 21.818 5.817 5.817 0 0 0 21.818 16 5.817 5.817 0 0 0 16 10.182Zm13.004 4.364a13.082 13.082 0 0 0-11.55-11.55V1.455C17.454.655 16.8 0 16 0c-.8 0-1.454.655-1.454 1.455v1.541a13.082 13.082 0 0 0-11.55 11.55H1.455C.655 14.546 0 15.2 0 16c0 .8.655 1.454 1.455 1.454h1.541a13.082 13.082 0 0 0 11.55 11.55v1.541c0 .8.654 1.455 1.454 1.455.8 0 1.454-.654 1.454-1.454v-1.542a13.082 13.082 0 0 0 11.55-11.55h1.541c.8 0 1.455-.654 1.455-1.454 0-.8-.654-1.454-1.454-1.454h-1.542ZM16 26.181A10.174 10.174 0 0 1 5.818 16c0-5.63 4.553-10.182 10.182-10.182 5.63 0 10.182 4.553 10.182 10.182 0 5.63-4.553 10.182-10.182 10.182Z" fill="url(#a)"/><defs><linearGradient id="a" x1="16" y1="0" x2="16" y2="32" gradientUnits="userSpaceOnUse"><stop stop-color="#FFBF00"/><stop offset=".906" stop-color="#F2A60C"/></linearGradient></defs></svg>