<svg width="24" height="32" fill="none" xmlns="http://www.w3.org/2000/svg"><path d="M20.774 10.667H19.29V7.619C19.29 3.413 15.967 0 11.871 0s-7.42 3.413-7.42 7.619v3.048H2.969C1.335 10.667 0 12.038 0 13.714v15.238C0 30.63 1.335 32 2.968 32h17.806c1.633 0 2.968-1.371 2.968-3.048V13.714c0-1.676-1.335-3.047-2.968-3.047ZM11.871 24.38c-1.632 0-2.968-1.372-2.968-3.048s1.336-3.047 2.968-3.047 2.968 1.371 2.968 3.047c0 1.677-1.336 3.048-2.968 3.048ZM7.419 10.667V7.619c0-2.53 1.989-4.571 4.452-4.571s4.452 2.042 4.452 4.571v3.048H7.419Z" fill="url(#a)"/><defs><linearGradient id="a" x1="11.871" y1="0" x2="11.871" y2="32" gradientUnits="userSpaceOnUse"><stop stop-color="#FFBF00"/><stop offset=".906" stop-color="#F2A60C"/></linearGradient></defs></svg>