<svg width="15" height="15" fill="none" xmlns="http://www.w3.org/2000/svg"><path d="m13.503 10.209-2.117-.242a1.658 1.658 0 0 0-1.366.475l-1.534 1.533a12.538 12.538 0 0 1-5.491-5.491l1.541-1.542c.359-.358.534-.858.475-1.367l-.241-2.1A1.668 1.668 0 0 0 3.111 0H1.67C.728 0-.055.784.003 1.725c.442 7.117 6.133 12.8 13.242 13.242.941.058 1.725-.725 1.725-1.667v-1.441a1.652 1.652 0 0 0-1.467-1.65Z" fill="url(#a)"/><defs><linearGradient id="a" x1="7.485" y1="0" x2="7.485" y2="14.97" gradientUnits="userSpaceOnUse"><stop stop-color="#FFBF00"/><stop offset=".906" stop-color="#F2A60C"/></linearGradient></defs></svg>