<svg width="41" height="32" fill="none" xmlns="http://www.w3.org/2000/svg"><path d="M35.227 12.024a1.985 1.985 0 0 0-.142 1.998c.5 1.156.854 2.37 1.05 3.615a15.84 15.84 0 0 1-1.393 9.449c-.173.322-.432.59-.748.777a2.033 2.033 0 0 1-1.047.282H7.427c-.371 0-.735-.1-1.052-.29a2.006 2.006 0 0 1-.744-.79A15.845 15.845 0 0 1 6.983 10.7a16.11 16.11 0 0 1 6.691-5.355 16.285 16.285 0 0 1 8.52-1.19c1.465.17 2.899.547 4.257 1.118a2.035 2.035 0 0 0 2.017-.14 1.982 1.982 0 0 0 .51-2.859 2.015 2.015 0 0 0-.853-.656A20.36 20.36 0 0 0 15.765.483a20.216 20.216 0 0 0-10.69 6.246A19.881 19.881 0 0 0 .1 17.989a19.815 19.815 0 0 0 2.625 12.013 4.015 4.015 0 0 0 1.467 1.457c.609.35 1.3.537 2.003.541h27.942c.711.003 1.41-.18 2.027-.531a4.015 4.015 0 0 0 1.483-1.467 19.801 19.801 0 0 0 1.11-17.759 2.003 2.003 0 0 0-.691-.802 2.032 2.032 0 0 0-2.84.583Z" fill="url(#a)"/><path d="M17.333 17.198a3.963 3.963 0 0 0 0 5.653 4.072 4.072 0 0 0 5.71 0L34.46 5.89 17.333 17.198Z" fill="url(#b)"/><defs><linearGradient id="a" x1="20.174" y1="0" x2="20.174" y2="32" gradientUnits="userSpaceOnUse"><stop stop-color="#FFBF00"/><stop offset=".906" stop-color="#F2A60C"/></linearGradient><linearGradient id="b" x1="25.306" y1="5.891" x2="25.306" y2="24.022" gradientUnits="userSpaceOnUse"><stop stop-color="#FFBF00"/><stop offset=".906" stop-color="#F2A60C"/></linearGradient></defs></svg>