<svg width="210" height="23" fill="none" xmlns="http://www.w3.org/2000/svg"><path d="M7.855 22.124 0 .523h5.783l5.438 16.332L16.659.523h5.783l-7.898 21.601h-6.69ZM32 22.647c-1.842 0-3.352-.29-4.532-.871-1.18-.61-2.057-1.408-2.632-2.395-.576-.988-.863-2.076-.863-3.267 0-2.003.776-3.63 2.33-4.878 1.554-1.248 3.884-1.872 6.991-1.872h5.438V8.84c0-1.48-.417-2.57-1.251-3.266-.834-.697-1.87-1.046-3.108-1.046-1.122 0-2.1.276-2.934.828-.835.523-1.352 1.306-1.554 2.352H24.49c.144-1.568.662-2.933 1.554-4.094.92-1.162 2.1-2.047 3.539-2.657C31.022.32 32.633 0 34.417 0c3.05 0 5.452.77 7.207 2.308 1.755 1.54 2.633 3.717 2.633 6.533v13.283h-4.705l-.517-3.484c-.633 1.162-1.525 2.12-2.676 2.875-1.122.755-2.575 1.132-4.36 1.132Zm1.251-4.355c1.583 0 2.806-.523 3.669-1.568.892-1.045 1.453-2.337 1.683-3.876h-4.704c-1.468 0-2.518.276-3.15.827-.634.523-.95 1.176-.95 1.96 0 .842.316 1.496.95 1.96.632.465 1.467.697 2.502.697ZM58.376 22.647c-1.9 0-3.568-.305-5.007-.914-1.438-.64-2.59-1.51-3.452-2.614-.864-1.103-1.381-2.38-1.554-3.832h5.567c.173.842.633 1.568 1.381 2.177.777.581 1.77.871 2.978.871 1.209 0 2.086-.246 2.633-.74.575-.494.863-1.06.863-1.698 0-.93-.403-1.554-1.208-1.873-.806-.349-1.928-.683-3.367-1.002-.92-.203-1.855-.45-2.805-.74-.95-.29-1.827-.654-2.633-1.09a6.122 6.122 0 0 1-1.898-1.741c-.49-.726-.734-1.612-.734-2.657 0-1.916.748-3.528 2.244-4.834C52.909.653 55.038 0 57.771 0c2.532 0 4.546.595 6.042 1.786 1.525 1.19 2.432 2.83 2.72 4.921H61.31c-.316-1.597-1.51-2.395-3.582-2.395-1.035 0-1.841.203-2.417.61-.546.406-.82.914-.82 1.524 0 .638.418 1.147 1.252 1.524.834.377 1.942.726 3.323 1.045 1.496.349 2.863.74 4.1 1.176 1.266.407 2.273 1.03 3.021 1.873.748.813 1.122 1.989 1.122 3.528.029 1.335-.316 2.54-1.035 3.614-.72 1.075-1.756 1.917-3.108 2.527-1.352.61-2.949.914-4.79.914ZM81.05 22.647c-1.899 0-3.567-.305-5.006-.914-1.439-.64-2.59-1.51-3.453-2.614-.863-1.103-1.38-2.38-1.553-3.832h5.567c.173.842.633 1.568 1.381 2.177.777.581 1.77.871 2.978.871 1.208 0 2.086-.246 2.633-.74.575-.494.863-1.06.863-1.698 0-.93-.403-1.554-1.209-1.873-.805-.349-1.927-.683-3.366-1.002-.92-.203-1.856-.45-2.805-.74-.95-.29-1.827-.654-2.633-1.09a6.12 6.12 0 0 1-1.899-1.741c-.489-.726-.734-1.612-.734-2.657 0-1.916.749-3.528 2.245-4.834C75.584.653 77.713 0 80.446 0c2.532 0 4.546.595 6.042 1.786 1.525 1.19 2.431 2.83 2.72 4.921h-5.223c-.317-1.597-1.51-2.395-3.582-2.395-1.036 0-1.842.203-2.417.61-.547.406-.82.914-.82 1.524 0 .638.417 1.147 1.252 1.524.834.377 1.942.726 3.323 1.045 1.496.349 2.863.74 4.1 1.176 1.266.407 2.273 1.03 3.02 1.873.749.813 1.123 1.989 1.123 3.528.029 1.335-.316 2.54-1.036 3.614-.72 1.075-1.755 1.917-3.107 2.527-1.352.61-2.95.914-4.79.914ZM105.149 22.647c-2.071 0-3.942-.479-5.61-1.437-1.64-.958-2.95-2.28-3.928-3.963-.95-1.713-1.424-3.688-1.424-5.924 0-2.235.49-4.195 1.468-5.879.978-1.713 2.287-3.049 3.927-4.007C101.25.48 103.12 0 105.192 0c2.043 0 3.885.48 5.525 1.437 1.668.958 2.977 2.294 3.927 4.007.978 1.684 1.467 3.644 1.467 5.88 0 2.235-.489 4.21-1.467 5.923a10.355 10.355 0 0 1-3.927 3.963c-1.669.958-3.525 1.437-5.568 1.437Zm0-4.834c1.439 0 2.69-.537 3.755-1.612 1.064-1.103 1.597-2.729 1.597-4.878 0-2.148-.533-3.76-1.597-4.834-1.065-1.103-2.302-1.655-3.712-1.655-1.467 0-2.733.552-3.798 1.655-1.035 1.075-1.553 2.686-1.553 4.834 0 2.15.518 3.775 1.553 4.878 1.065 1.075 2.317 1.612 3.755 1.612ZM129.078 22.647c-2.676 0-4.748-.842-6.215-2.526-1.438-1.684-2.158-4.152-2.158-7.404V.523h5.481v11.672c0 1.858.374 3.28 1.122 4.268.748.987 1.928 1.48 3.539 1.48 1.525 0 2.777-.551 3.755-1.655 1.007-1.103 1.511-2.642 1.511-4.616V.522h5.524v21.602h-4.877l-.432-3.658c-.661 1.278-1.625 2.294-2.891 3.049-1.237.755-2.69 1.132-4.359 1.132ZM147.308 22.124V.523h4.92l.517 4.05c.777-1.394 1.827-2.497 3.151-3.31C157.248.421 158.831 0 160.643 0v5.88h-1.553c-1.209 0-2.288.188-3.237.566-.95.377-1.698 1.03-2.244 1.96-.518.929-.777 2.22-.777 3.876v9.842h-5.524ZM171.799 22.647c-1.841 0-3.352-.29-4.532-.871-1.179-.61-2.057-1.408-2.632-2.395-.576-.988-.863-2.076-.863-3.267 0-2.003.776-3.63 2.33-4.878 1.554-1.248 3.884-1.872 6.992-1.872h5.438V8.84c0-1.48-.418-2.57-1.252-3.266-.834-.697-1.87-1.046-3.107-1.046-1.122 0-2.101.276-2.935.828-.834.523-1.352 1.306-1.554 2.352h-5.394c.143-1.568.661-2.933 1.553-4.094.921-1.162 2.101-2.047 3.539-2.657C170.821.32 172.432 0 174.216 0c3.05 0 5.452.77 7.207 2.308 1.755 1.54 2.633 3.717 2.633 6.533v13.283h-4.704l-.518-3.484c-.633 1.162-1.525 2.12-2.676 2.875-1.122.755-2.575 1.132-4.359 1.132Zm1.252-4.355c1.582 0 2.805-.523 3.668-1.568.892-1.045 1.453-2.337 1.683-3.876h-4.704c-1.467 0-2.518.276-3.151.827-.633.523-.949 1.176-.949 1.96 0 .842.316 1.496.949 1.96.633.465 1.468.697 2.504.697ZM187.299 22.124l7.768-10.8L187.299.522h5.913l5.438 7.665 5.394-7.665H210l-7.812 10.8L210 22.124h-5.956l-5.394-7.665-5.438 7.665h-5.913Z" fill="#fff"/></svg>